<svg width="26" height="26" viewBox="0 0 26 26" fill="none" xmlns="http://www.w3.org/2000/svg">
<rect x="2" y="2" width="22" height="22" rx="11" fill="#50B5FF"/>
<path d="M12.0002 17.6663V14.0003H8.33325C7.78108 14.0003 7.33343 13.5525 7.33325 13.0003C7.33325 12.448 7.78097 12.0003 8.33325 12.0003H12.0002V8.33333C12.0002 7.78104 12.448 7.33333 13.0002 7.33333C13.5524 7.3335 14.0002 7.78115 14.0002 8.33333V12.0003H17.6663C18.2185 12.0003 18.6663 12.448 18.6663 13.0003C18.6661 13.5525 18.2184 14.0003 17.6663 14.0003H14.0002V17.6663C14.0002 18.2185 13.5524 18.6662 13.0002 18.6663C12.448 18.6663 12.0002 18.2186 12.0002 17.6663Z" fill="white"/>
</svg>
