<svg width="36" height="36" viewBox="0 0 36 36" fill="none" xmlns="http://www.w3.org/2000/svg">
<g opacity="0.3">
<path d="M30.375 5.625H5.625C5.02826 5.625 4.45597 5.86205 4.03401 6.28401C3.61205 6.70597 3.375 7.27826 3.375 7.875V28.125C3.375 28.7217 3.61205 29.294 4.03401 29.716C4.45597 30.1379 5.02826 30.375 5.625 30.375H30.375C30.9717 30.375 31.544 30.1379 31.966 29.716C32.3879 29.294 32.625 28.7217 32.625 28.125V7.875C32.625 7.27826 32.3879 6.70597 31.966 6.28401C31.544 5.86205 30.9717 5.625 30.375 5.625ZM30.375 7.875V22.3242L26.7089 18.6595C26.5 18.4505 26.2519 18.2848 25.9789 18.1717C25.7059 18.0586 25.4133 18.0003 25.1177 18.0003C24.8222 18.0003 24.5296 18.0586 24.2566 18.1717C23.9836 18.2848 23.7355 18.4505 23.5266 18.6595L20.7141 21.472L14.5266 15.2845C14.1046 14.8629 13.5326 14.626 12.9361 14.626C12.3396 14.626 11.7675 14.8629 11.3456 15.2845L5.625 21.0052V7.875H30.375ZM5.625 24.1875L12.9375 16.875L24.1875 28.125H5.625V24.1875ZM30.375 28.125H27.3698L22.3073 23.0625L25.1198 20.25L30.375 25.5066V28.125ZM20.25 14.0625C20.25 13.7287 20.349 13.4025 20.5344 13.125C20.7198 12.8475 20.9834 12.6312 21.2917 12.5035C21.6001 12.3757 21.9394 12.3423 22.2667 12.4074C22.5941 12.4725 22.8947 12.6333 23.1307 12.8693C23.3667 13.1053 23.5275 13.4059 23.5926 13.7333C23.6577 14.0606 23.6243 14.3999 23.4965 14.7083C23.3688 15.0166 23.1525 15.2802 22.875 15.4656C22.5975 15.651 22.2713 15.75 21.9375 15.75C21.4899 15.75 21.0607 15.5722 20.7443 15.2557C20.4278 14.9393 20.25 14.5101 20.25 14.0625Z" fill="white"/>
</g>
</svg>
