<svg width="86" height="86" viewBox="0 0 86 86" fill="none" xmlns="http://www.w3.org/2000/svg">
<mask id="path-1-inside-1_375_17373" fill="white">
<path d="M42.9998 0C66.748 0 85.9998 19.2518 85.9998 43C85.9998 66.7482 66.748 86 42.9998 86C19.2516 85.9999 -0.000244141 66.7482 -0.000244141 43C-0.000244141 32.9843 3.42408 23.7682 9.16577 16.459L6.86499 8.94336C6.41425 7.47122 7.72604 6.06346 9.22632 6.40918L17.5632 8.33008C24.6869 3.09476 33.4814 4.95848e-05 42.9998 0Z"/>
</mask>
<path d="M42.9998 0C66.748 0 85.9998 19.2518 85.9998 43C85.9998 66.7482 66.748 86 42.9998 86C19.2516 85.9999 -0.000244141 66.7482 -0.000244141 43C-0.000244141 32.9843 3.42408 23.7682 9.16577 16.459L6.86499 8.94336C6.41425 7.47122 7.72604 6.06346 9.22632 6.40918L17.5632 8.33008C24.6869 3.09476 33.4814 4.95848e-05 42.9998 0Z" fill="#313131"/>
<path d="M42.9998 0V-1H42.9998L42.9998 0ZM42.9998 86L42.9998 87H42.9998V86ZM9.16577 16.459L9.95216 17.0767L10.2749 16.6659L10.122 16.1663L9.16577 16.459ZM6.86499 8.94336L7.82119 8.65064L7.82117 8.65059L6.86499 8.94336ZM9.22632 6.40918L9.00177 7.38364L9.00179 7.38365L9.22632 6.40918ZM17.5632 8.33008L17.3387 9.30455L17.7858 9.40755L18.1554 9.13587L17.5632 8.33008ZM42.9998 0L42.9998 -1C42.2217 -0.999996 41.4482 -0.979773 40.6799 -0.939819L40.7318 0.0588314L40.7838 1.05748C41.5175 1.01933 42.2563 1 42.9998 1L42.9998 0ZM36.2219 0.53151L36.0654 -0.45617C34.5245 -0.212037 33.0102 0.112129 31.5268 0.511934L31.7871 1.47748L32.0473 2.44302C33.4627 2.06154 34.9078 1.75219 36.3784 1.51919L36.2219 0.53151ZM27.4773 2.88872L27.1161 1.95625C25.6665 2.51783 24.2542 3.15395 22.8838 3.85986L23.3417 4.74885L23.7996 5.63784C25.1076 4.96411 26.4554 4.35706 27.8386 3.82119L27.4773 2.88872ZM19.4256 7.03538L18.8765 6.19958C18.2293 6.62476 17.5939 7.06653 16.971 7.52428L17.5632 8.33008L18.1554 9.13587C18.7501 8.69884 19.3567 8.27708 19.9746 7.87119L19.4256 7.03538ZM17.5632 8.33008L17.7878 7.35561L15.7035 6.87539L15.479 7.84985L15.2545 8.82432L17.3387 9.30455L17.5632 8.33008ZM11.3105 6.8894L11.5351 5.91494L9.45084 5.43471L9.22632 6.40918L9.00179 7.38365L11.086 7.86387L11.3105 6.8894ZM9.22632 6.40918L9.45087 5.43472C8.91293 5.31076 8.38142 5.3379 7.89676 5.48706L8.19092 6.44282L8.48507 7.39858C8.63863 7.35132 8.81234 7.33999 9.00177 7.38364L9.22632 6.40918ZM6.82549 7.90817L5.85137 7.68216C5.73676 8.17615 5.74718 8.70825 5.90881 9.23612L6.86499 8.94336L7.82117 8.65059C7.76427 8.46473 7.76331 8.29067 7.79962 8.13418L6.82549 7.90817ZM6.86499 8.94336L5.90879 9.23608L6.48399 11.115L7.44019 10.8223L8.39638 10.5295L7.82119 8.65064L6.86499 8.94336ZM8.59058 14.5801L7.63438 14.8728L8.20957 16.7517L9.16577 16.459L10.122 16.1663L9.54677 14.2874L8.59058 14.5801ZM9.16577 16.459L8.37939 15.8412C8.0029 16.3205 7.63614 16.8078 7.27942 17.3028L8.09071 17.8875L8.902 18.4721C9.24256 17.9995 9.59271 17.5343 9.95216 17.0767L9.16577 16.459ZM6.12279 20.872L5.2658 20.3566C4.63869 21.3995 4.05356 22.4705 3.51276 23.5674L4.40967 24.0096L5.30658 24.4518C5.82271 23.405 6.38118 22.3827 6.97978 21.3873L6.12279 20.872ZM2.96418 27.2792L2.03346 26.9134C1.58915 28.0441 1.19029 29.1976 0.839109 30.3716L1.79717 30.6582L2.75523 30.9448C3.09032 29.8245 3.47092 28.7238 3.89489 27.6449L2.96418 27.2792ZM0.917087 34.123L-0.0615891 33.9176C-0.310524 35.1037 -0.511683 36.3072 -0.662974 37.5261L0.329411 37.6493L1.3218 37.7725C1.46621 36.609 1.65821 35.4603 1.89576 34.3284L0.917087 34.123ZM0.0362416 41.2123L-0.962923 41.1715C-0.987725 41.778 -1.00024 42.3875 -1.00024 43H-0.000244141H0.999756C0.999756 42.4148 1.01172 41.8325 1.03541 41.2532L0.0362416 41.2123ZM-0.000244141 43H-1.00024C-1.00024 43.7238 -0.982757 44.4436 -0.948176 45.1591L0.050658 45.1108L1.04949 45.0625C1.01646 44.3792 0.999756 43.6916 0.999756 43H-0.000244141ZM0.459724 49.3118L-0.52963 49.4573C-0.318409 50.8932 -0.037813 52.3067 0.30866 53.6941L1.27887 53.4519L2.24907 53.2096C1.91847 51.8857 1.65068 50.5368 1.44908 49.1662L0.459724 49.3118ZM2.50255 57.4907L1.56102 57.8277C2.04849 59.1899 2.6012 60.521 3.21536 61.8172L4.11905 61.389L5.02275 60.9608C4.43664 59.7238 3.90922 58.4536 3.44407 57.1538L2.50255 57.4907ZM6.11158 65.1092L5.25433 65.6241C5.99734 66.8611 6.7994 68.0585 7.65659 69.2124L8.45934 68.6161L9.26208 68.0198C8.44371 66.9181 7.67805 65.7751 6.96883 64.5943L6.11158 65.1092ZM11.1385 71.877L10.3977 72.5488C11.3652 73.6155 12.3842 74.6346 13.451 75.602L14.1227 74.8612L14.7945 74.1205C13.776 73.1968 12.803 72.2238 11.8792 71.2052L11.1385 71.877ZM17.3836 77.5404L16.7873 78.3431C17.9412 79.2003 19.1386 80.0024 20.3756 80.7454L20.8906 79.8881L21.4055 79.0309C20.2247 78.3217 19.0816 77.556 17.9799 76.7376L17.3836 77.5404ZM24.6107 81.8807L24.1826 82.7844C25.4788 83.3985 26.8099 83.9512 28.1721 84.4387L28.509 83.4972L28.846 82.5556C27.5462 82.0905 26.276 81.5631 25.0389 80.977L24.6107 81.8807ZM32.5479 84.7208L32.3056 85.6911C33.6931 86.0375 35.1065 86.3181 36.5425 86.5294L36.688 85.54L36.8335 84.5507C35.463 84.349 34.1141 84.0813 32.7902 83.7506L32.5479 84.7208ZM40.889 85.9491L40.8407 86.9479C41.5561 86.9825 42.2759 87 42.9998 87L42.9998 86L42.9998 85C42.3082 85 41.6205 84.9833 40.9373 84.9503L40.889 85.9491ZM42.9998 86V87C43.7236 87 44.4434 86.9825 45.1588 86.9479L45.1105 85.9491L45.0623 84.9503C44.379 84.9833 43.6914 85 42.9998 85V86ZM49.3115 85.54L49.4571 86.5294C50.893 86.3182 52.3064 86.0376 53.6939 85.6911L53.4516 84.7209L53.2094 83.7507C51.8854 84.0813 50.5365 84.3491 49.166 84.5507L49.3115 85.54ZM57.4905 83.4972L57.8275 84.4388C59.1896 83.9513 60.5207 83.3986 61.817 82.7844L61.3888 81.8807L60.9606 80.977C59.7236 81.5631 58.4534 82.0906 57.1536 82.5557L57.4905 83.4972ZM65.109 79.8882L65.6239 80.7455C66.8609 80.0025 68.0583 79.2004 69.2122 78.3432L68.6159 77.5405L68.0196 76.7377C66.9179 77.5561 65.7749 78.3217 64.5941 79.031L65.109 79.8882ZM71.8768 74.8613L72.5486 75.6021C73.6153 74.6346 74.6344 73.6156 75.6018 72.5488L74.8611 71.8771L74.1203 71.2053C73.1966 72.2238 72.2236 73.1969 71.205 74.1206L71.8768 74.8613ZM77.5402 68.6162L78.343 69.2125C79.2002 68.0586 80.0022 66.8612 80.7452 65.6241L79.888 65.1092L79.0307 64.5943C78.3215 65.7751 77.5558 66.9182 76.7375 68.0199L77.5402 68.6162ZM81.8805 61.389L82.7842 61.8172C83.3983 60.521 83.951 59.1899 84.4385 57.8277L83.497 57.4908L82.5555 57.1538C82.0903 58.4536 81.5629 59.7238 80.9768 60.9609L81.8805 61.389ZM84.7207 53.4519L85.6909 53.6941C86.0373 52.3067 86.3179 50.8932 86.5291 49.4573L85.5398 49.3118L84.5504 49.1662C84.3488 50.5368 84.0811 51.8857 83.7505 53.2096L84.7207 53.4519ZM85.9489 45.1108L86.9477 45.1591C86.9823 44.4436 86.9998 43.7238 86.9998 43H85.9998H84.9998C84.9998 43.6916 84.983 44.3792 84.95 45.0625L85.9489 45.1108ZM85.9998 43H86.9998C86.9998 42.2762 86.9823 41.5563 86.9477 40.8409L85.9489 40.8892L84.95 40.9375C84.983 41.6208 84.9998 42.3084 84.9998 43H85.9998ZM85.5398 36.6882L86.5291 36.5427C86.3179 35.1068 86.0373 33.6933 85.6909 32.3058L84.7207 32.5481L83.7505 32.7904C84.0811 34.1143 84.3488 35.4632 84.5504 36.8338L85.5398 36.6882ZM83.497 28.5092L84.4385 28.1723C83.951 26.8101 83.3983 25.479 82.7842 24.1828L81.8805 24.611L80.9768 25.0391C81.5629 26.2762 82.0903 27.5464 82.5555 28.8462L83.497 28.5092ZM79.888 20.8908L80.7452 20.3759C80.0022 19.1388 79.2002 17.9414 78.343 16.7875L77.5402 17.3838L76.7375 17.9801C77.5558 19.0818 78.3215 20.2249 79.0307 21.4057L79.888 20.8908ZM74.8611 14.1229L75.6018 13.4512C74.6344 12.3844 73.6153 11.3654 72.5486 10.3979L71.8768 11.1387L71.205 11.8794C72.2236 12.8032 73.1966 13.7762 74.1203 14.7947L74.8611 14.1229ZM68.6159 8.45954L69.2123 7.65679C68.0583 6.7996 66.8609 5.99754 65.6239 5.25454L65.109 6.11179L64.5941 6.96904C65.7749 7.67826 66.9179 8.44392 68.0196 9.26229L68.6159 8.45954ZM61.3888 4.11927L61.817 3.21557C60.5207 2.60141 59.1896 2.04871 57.8274 1.56124L57.4905 2.50277L57.1536 3.4443C58.4534 3.90944 59.7236 4.43686 60.9606 5.02297L61.3888 4.11927ZM53.4516 1.2791L53.6939 0.308891C52.3064 -0.0375791 50.893 -0.318173 49.4571 -0.529391L49.3115 0.459963L49.166 1.44932C50.5365 1.65092 51.8854 1.9187 53.2094 2.24931L53.4516 1.2791ZM45.1105 0.0509013L45.1588 -0.947932C44.4434 -0.982513 43.7236 -1 42.9998 -1V0V1C43.6914 1 44.379 1.01671 45.0623 1.04974L45.1105 0.0509013ZM42.9998 0V-2H42.9997L42.9998 0ZM42.9998 86L42.9997 88H42.9998V86ZM9.16577 16.459L10.7385 17.6945L11.384 16.8727L11.0782 15.8735L9.16577 16.459ZM6.86499 8.94336L8.77738 8.35791L8.77736 8.35783L6.86499 8.94336ZM9.22632 6.40918L8.77722 8.3581L8.77727 8.35812L9.22632 6.40918ZM17.5632 8.33008L17.1142 10.279L18.0083 10.485L18.7476 9.94167L17.5632 8.33008ZM42.9998 0L42.9997 -2C42.2043 -2 41.4136 -1.97932 40.628 -1.93847L40.7318 0.0588314L40.8357 2.05613C41.5522 2.01888 42.2737 2 42.9998 2L42.9998 0ZM36.2219 0.53151L35.9089 -1.44385C34.3329 -1.19415 32.784 -0.862577 31.2666 -0.453611L31.7871 1.47748L32.3076 3.40857C33.689 3.03625 35.0994 2.7343 36.5349 2.50687L36.2219 0.53151ZM27.4773 2.88872L26.7548 1.02379C25.2721 1.59822 23.8275 2.24887 22.4258 2.97087L23.3417 4.74885L24.2576 6.52683C25.5343 5.86919 26.8498 5.27667 28.1998 4.75365L27.4773 2.88872ZM19.4256 7.03538L18.3275 5.36378C17.6656 5.7986 17.0158 6.25038 16.3788 6.71849L17.5632 8.33008L18.7476 9.94167C19.3282 9.51499 19.9204 9.10324 20.5236 8.70699L19.4256 7.03538ZM17.5632 8.33008L18.0123 6.38114L15.9281 5.90092L15.479 7.84985L15.03 9.79879L17.1142 10.279L17.5632 8.33008ZM11.3105 6.8894L11.7596 4.94047L9.67537 4.46024L9.22632 6.40918L8.77727 8.35812L10.8615 8.83834L11.3105 6.8894ZM9.22632 6.40918L9.67542 4.46025C8.96322 4.29614 8.25282 4.33119 7.60261 4.5313L8.19092 6.44282L8.77922 8.35434C8.77545 8.3555 8.77131 8.35617 8.76803 8.35629C8.76662 8.35635 8.76632 8.35626 8.76739 8.35636C8.76845 8.35646 8.77166 8.35682 8.77722 8.3581L9.22632 6.40918ZM6.82549 7.90817L4.87724 7.45614C4.72348 8.11889 4.73864 8.83002 4.95262 9.52889L6.86499 8.94336L8.77736 8.35783C8.77569 8.35238 8.7751 8.34921 8.77493 8.34817C8.77475 8.34712 8.77486 8.34741 8.77491 8.34883C8.77502 8.35213 8.77464 8.35632 8.77374 8.36019L6.82549 7.90817ZM6.86499 8.94336L4.9526 9.52881L5.52779 11.4077L7.44019 10.8223L9.35258 10.2368L8.77738 8.35791L6.86499 8.94336ZM8.59058 14.5801L6.67818 15.1655L7.25338 17.0444L9.16577 16.459L11.0782 15.8735L10.503 13.9946L8.59058 14.5801ZM9.16577 16.459L7.593 15.2235C7.20799 15.7136 6.83293 16.212 6.46812 16.7182L8.09071 17.8875L9.71329 19.0568C10.0458 18.5954 10.3876 18.1412 10.7385 17.6945L9.16577 16.459ZM6.12279 20.872L4.40882 19.8413C3.76745 20.9079 3.16899 22.0033 2.61585 23.1252L4.40967 24.0096L6.2035 24.894C6.70728 23.8722 7.25243 22.8744 7.83677 21.9026L6.12279 20.872ZM2.96418 27.2792L1.10275 26.5477C0.648273 27.7042 0.240269 28.8841 -0.118952 30.0851L1.79717 30.6582L3.71329 31.2313C4.04034 30.1379 4.4118 29.0637 4.8256 28.0107L2.96418 27.2792ZM0.917087 34.123L-1.04027 33.7122C-1.29489 34.9254 -1.50063 36.1564 -1.65536 37.403L0.329411 37.6493L2.31418 37.8957C2.45516 36.7598 2.64258 35.6386 2.87444 34.5339L0.917087 34.123ZM0.0362416 41.2123L-1.96209 41.1306C-1.98745 41.7507 -2.00024 42.3739 -2.00024 43H-0.000244141H1.99976C1.99976 42.4284 2.01144 41.8597 2.03457 41.2941L0.0362416 41.2123ZM-0.000244141 43H-2.00024C-2.00024 43.7399 -1.98237 44.4759 -1.94701 45.2073L0.050658 45.1108L2.04833 45.0142C2.01607 44.347 1.99976 43.6755 1.99976 43H-0.000244141ZM0.459724 49.3118L-1.51898 49.6028C-1.30295 51.0714 -1.01595 52.5172 -0.661547 53.9364L1.27887 53.4519L3.21928 52.9673C2.89661 51.6752 2.63522 50.3585 2.43843 49.0207L0.459724 49.3118ZM2.50255 57.4907L0.619494 58.1646C1.11813 59.558 1.68348 60.9195 2.31166 62.2454L4.11905 61.389L5.92645 60.5327C5.35436 59.3252 4.83958 58.0855 4.3856 56.8169L2.50255 57.4907ZM6.11158 65.1092L4.39709 66.139C5.15698 67.4041 5.97724 68.6287 6.85385 69.8088L8.45934 68.6161L10.0648 67.4235C9.26587 66.3479 8.51841 65.232 7.82607 64.0794L6.11158 65.1092ZM11.1385 71.877L9.65698 73.2206C10.6463 74.3114 11.6883 75.3535 12.7792 76.3428L14.1227 74.8612L15.4663 73.3797C14.4718 72.4779 13.5218 71.5279 12.62 70.5334L11.1385 71.877ZM17.3836 77.5404L16.191 79.1459C17.371 80.0225 18.5956 80.8427 19.8607 81.6026L20.8906 79.8881L21.9204 78.1736C20.7677 77.4813 19.6518 76.7338 18.5763 75.9349L17.3836 77.5404ZM24.6107 81.8807L23.7544 83.6881C25.0802 84.3162 26.4418 84.8816 27.8351 85.3802L28.509 83.4972L29.1829 81.6141C27.9143 81.1601 26.6745 80.6454 25.4671 80.0733L24.6107 81.8807ZM32.5479 84.7208L32.0633 86.6613C33.4826 87.0157 34.9283 87.3027 36.3969 87.5187L36.688 85.54L36.9791 83.5613C35.6412 83.3645 34.3246 83.1031 33.0325 82.7804L32.5479 84.7208ZM40.889 85.9491L40.7924 87.9468C41.5239 87.9821 42.2598 88 42.9997 88L42.9998 86L42.9998 84C42.3243 84 41.6527 83.9837 40.9856 83.9514L40.889 85.9491ZM42.9998 86V88C43.7397 88 44.4756 87.9821 45.2071 87.9468L45.1105 85.9491L45.014 83.9514C44.3468 83.9837 43.6753 84 42.9998 84V86ZM49.3115 85.54L49.6026 87.5187C51.0712 87.3027 52.5169 87.0157 53.9362 86.6613L53.4516 84.7209L52.9671 82.7805C51.6749 83.1032 50.3583 83.3645 49.0205 83.5613L49.3115 85.54ZM57.4905 83.4972L58.1644 85.3803C59.5578 84.8817 60.9193 84.3163 62.2451 83.6881L61.3888 81.8807L60.5325 80.0733C59.325 80.6454 58.0852 81.1602 56.8167 81.6142L57.4905 83.4972ZM65.109 79.8882L66.1388 81.6027C67.4039 80.8428 68.6285 80.0226 69.8086 79.146L68.6159 77.5405L67.4233 75.935C66.3478 76.7339 65.2318 77.4814 64.0792 78.1737L65.109 79.8882ZM71.8768 74.8613L73.2204 76.3428C74.3112 75.3535 75.3533 74.3115 76.3426 73.2206L74.8611 71.8771L73.3796 70.5335C72.4777 71.528 71.5277 72.478 70.5333 73.3798L71.8768 74.8613ZM77.5402 68.6162L79.1457 69.8088C80.0223 68.6288 80.8426 67.4042 81.6025 66.1391L79.888 65.1092L78.1735 64.0794C77.4811 65.2321 76.7337 66.348 75.9347 67.4235L77.5402 68.6162ZM81.8805 61.389L83.6879 62.2454C84.3161 60.9195 84.8814 59.558 85.38 58.1646L83.497 57.4908L81.6139 56.8169C81.16 58.0855 80.6452 59.3253 80.0731 60.5327L81.8805 61.389ZM84.7207 53.4519L86.6611 53.9364C87.0155 52.5172 87.3025 51.0714 87.5185 49.6028L85.5398 49.3118L83.5611 49.0207C83.3643 50.3585 83.1029 51.6752 82.7802 52.9673L84.7207 53.4519ZM85.9489 45.1108L87.9465 45.2073C87.9819 44.4759 87.9998 43.7399 87.9998 43H85.9998H83.9998C83.9998 43.6755 83.9834 44.347 83.9512 45.0142L85.9489 45.1108ZM85.9998 43H87.9998C87.9998 42.2601 87.9819 41.5241 87.9465 40.7926L85.9489 40.8892L83.9512 40.9858C83.9834 41.653 83.9998 42.3245 83.9998 43H85.9998ZM85.5398 36.6882L87.5185 36.3972C87.3025 34.9286 87.0155 33.4828 86.6611 32.0636L84.7207 32.5481L82.7802 33.0327C83.1029 34.3248 83.3643 35.6414 83.5611 36.9793L85.5398 36.6882ZM83.497 28.5092L85.38 27.8354C84.8814 26.442 84.3161 25.0805 83.6879 23.7546L81.8805 24.611L80.0731 25.4673C80.6452 26.6747 81.16 27.9145 81.6139 29.1831L83.497 28.5092ZM79.888 20.8908L81.6025 19.8609C80.8426 18.5958 80.0223 17.3712 79.1457 16.1912L77.5402 17.3838L75.9347 18.5765C76.7337 19.652 77.4811 20.7679 78.1735 21.9206L79.888 20.8908ZM74.8611 14.1229L76.3426 12.7794C75.3533 11.6885 74.3112 10.6465 73.2204 9.65718L71.8768 11.1387L70.5333 12.6202C71.5277 13.522 72.4777 14.472 73.3796 15.4665L74.8611 14.1229ZM68.6159 8.45954L69.8086 6.85404C68.6285 5.97744 67.4039 5.15719 66.1388 4.39729L65.109 6.11179L64.0792 7.82628C65.2318 8.51862 66.3478 9.26607 67.4233 10.065L68.6159 8.45954ZM61.3888 4.11927L62.2451 2.31187C60.9193 1.68369 59.5578 1.11835 58.1644 0.619715L57.4905 2.50277L56.8166 4.38583C58.0852 4.83981 59.325 5.35458 60.5325 5.92667L61.3888 4.11927ZM53.4516 1.2791L53.9362 -0.661316C52.5169 -1.01572 51.0712 -1.30272 49.6026 -1.51874L49.3115 0.459963L49.0205 2.43867C50.3583 2.63546 51.6749 2.89684 52.9671 3.21951L53.4516 1.2791ZM45.1105 0.0509013L45.2071 -1.94677C44.4756 -1.98212 43.7397 -2 42.9998 -2V0V2C43.6753 2 44.3468 2.01632 45.014 2.04857L45.1105 0.0509013Z" fill="white" fill-opacity="0.08" mask="url(#path-1-inside-1_375_17373)"/>
<g opacity="0.3" clip-path="url(#clip0_375_17373)">
<path d="M46.8582 48.6931C44.6139 49.9864 41.9751 50.2039 39.5705 48.8156C37.1659 47.4274 36.0349 45.0333 36.0328 42.4431" stroke="white" stroke-width="2" stroke-linecap="round" stroke-linejoin="round"/>
<path d="M39.9681 56.9458C36.7088 56.1964 33.7938 54.3781 31.6874 51.7804C29.5809 49.1828 28.404 45.9551 28.344 42.6112C28.284 39.2674 29.3444 35.9996 31.3564 33.3281C33.3684 30.6565 36.2162 28.7349 39.4466 27.8691C42.677 27.0032 46.1042 27.2429 49.1825 28.5501C52.2609 29.8572 54.8135 32.1566 56.434 35.0822C58.0544 38.0078 58.6495 41.3914 58.1246 44.6944C57.5997 47.9973 55.9849 51.0297 53.5374 53.3088L39.9681 56.9458Z" stroke="white" stroke-width="2" stroke-linecap="round" stroke-linejoin="round"/>
<path d="M39.0741 38.4254C39.9709 38.9432 41.1176 38.6359 41.6354 37.7391C42.1532 36.8423 41.8459 35.6956 40.9491 35.1778C40.0523 34.6601 38.9056 34.9673 38.3878 35.8641C37.8701 36.7609 38.1773 37.9077 39.0741 38.4254Z" fill="white"/>
<path d="M48.8169 44.0504C49.7137 44.5682 50.8604 44.2609 51.3782 43.3641C51.896 42.4673 51.5887 41.3206 50.6919 40.8028C49.7951 40.2851 48.6484 40.5923 48.1306 41.4891C47.6128 42.3859 47.9201 43.5327 48.8169 44.0504Z" fill="white"/>
</g>
<defs>
<clipPath id="clip0_375_17373">
<rect width="40" height="40" fill="white" transform="translate(36 14.9999) rotate(30)"/>
</clipPath>
</defs>
</svg>
